<svg width="24" height="24" viewBox="0 0 24 24" fill="none" xmlns="http://www.w3.org/2000/svg">
<path d="M11.7812 5.875C8.5 5.875 5.875 8.52734 5.875 11.7812C5.875 15.0625 8.5 17.6875 11.7812 17.6875C15.0352 17.6875 17.6875 15.0625 17.6875 11.7812C17.6875 8.52734 15.0078 5.875 11.7812 5.875ZM11.7812 5C15.5 5 18.5625 8.0625 18.5625 11.7812C18.5625 15.5273 15.5 18.5625 11.7812 18.5625C8.03516 18.5625 5 15.5273 5 11.7812C5 8.0625 8.03516 5 11.7812 5ZM10.7969 14.4062H11.125V11.125H10.7969C10.6055 11.125 10.4688 10.9883 10.4688 10.7969V10.5781C10.4688 10.4141 10.6055 10.25 10.7969 10.25H12.1094C12.2734 10.25 12.4375 10.4141 12.4375 10.5781V14.4062H12.7656C12.9297 14.4062 13.0938 14.5703 13.0938 14.7344V14.9531C13.0938 15.1445 12.9297 15.2812 12.7656 15.2812H10.7969C10.6055 15.2812 10.4688 15.1445 10.4688 14.9531V14.7344C10.4688 14.5703 10.6055 14.4062 10.7969 14.4062ZM11.7812 7.84375C12.2461 7.84375 12.6562 8.25391 12.6562 8.71875C12.6562 9.21094 12.2461 9.59375 11.7812 9.59375C11.2891 9.59375 10.9062 9.21094 10.9062 8.71875C10.9062 8.25391 11.2891 7.84375 11.7812 7.84375Z" fill="#FA9A82"/>
</svg>
